<svg width="24" height="25" viewBox="0 0 24 25" fill="none" xmlns="http://www.w3.org/2000/svg">
<path d="M12 22.5C10.6167 22.5 9.31667 22.2373 8.1 21.712C6.88334 21.1867 5.825 20.4743 4.925 19.575C4.025 18.6757 3.31267 17.6173 2.788 16.4C2.26333 15.1827 2.00067 13.8827 2 12.5C1.99933 11.1173 2.262 9.81733 2.788 8.6C3.314 7.38267 4.02633 6.32433 4.925 5.425C5.82367 4.52567 6.882 3.81333 8.1 3.288C9.318 2.76267 10.618 2.5 12 2.5C13.382 2.5 14.682 2.76267 15.9 3.288C17.118 3.81333 18.1763 4.52567 19.075 5.425C19.9737 6.32433 20.6863 7.38267 21.213 8.6C21.7397 9.81733 22.002 11.1173 22 12.5C21.998 13.8827 21.7353 15.1827 21.212 16.4C20.6887 17.6173 19.9763 18.6757 19.075 19.575C18.1737 20.4743 17.1153 21.187 15.9 21.713C14.6847 22.239 13.3847 22.5013 12 22.5ZM12 20.5C14.2333 20.5 16.125 19.725 17.675 18.175C19.225 16.625 20 14.7333 20 12.5C20 10.2667 19.225 8.375 17.675 6.825C16.125 5.275 14.2333 4.5 12 4.5C9.76667 4.5 7.875 5.275 6.325 6.825C4.775 8.375 4 10.2667 4 12.5C4 14.7333 4.775 16.625 6.325 18.175C7.875 19.725 9.76667 20.5 12 20.5ZM12 18.5C10.3333 18.5 8.91667 17.9167 7.75 16.75C6.58333 15.5833 6 14.1667 6 12.5C6 10.8333 6.58333 9.41667 7.75 8.25C8.91667 7.08333 10.3333 6.5 12 6.5C13.6667 6.5 15.0833 7.08333 16.25 8.25C17.4167 9.41667 18 10.8333 18 12.5C18 14.1667 17.4167 15.5833 16.25 16.75C15.0833 17.9167 13.6667 18.5 12 18.5ZM12 16.5C13.1 16.5 14.0417 16.1083 14.825 15.325C15.6083 14.5417 16 13.6 16 12.5C16 11.4 15.6083 10.4583 14.825 9.675C14.0417 8.89167 13.1 8.5 12 8.5C10.9 8.5 9.95833 8.89167 9.175 9.675C8.39167 10.4583 8 11.4 8 12.5C8 13.6 8.39167 14.5417 9.175 15.325C9.95833 16.1083 10.9 16.5 12 16.5ZM12 14.5C11.45 14.5 10.9793 14.3043 10.588 13.913C10.1967 13.5217 10.0007 13.0507 10 12.5C9.99933 11.9493 10.1953 11.4787 10.588 11.088C10.9807 10.6973 11.4513 10.5013 12 10.5C12.5487 10.4987 13.0197 10.6947 13.413 11.088C13.8063 11.4813 14.002 11.952 14 12.5C13.998 13.048 13.8023 13.519 13.413 13.913C13.0237 14.307 12.5527 14.5027 12 14.5Z" fill="white"/>
</svg>
