<svg width="24" height="24" viewBox="0 0 24 24" fill="none" xmlns="http://www.w3.org/2000/svg">
<g clip-path="url(#clip0_145_1963)">
<path d="M8.25 12C8.25 12.95 8.2925 13.871 8.3715 14.75H15.6285C15.7075 13.871 15.75 12.95 15.75 12C15.75 11.05 15.7075 10.129 15.628 9.25H8.3725C8.2925 10.129 8.25 11.05 8.25 12ZM6.8665 9.25C6.78824 10.1646 6.74937 11.0821 6.75 12C6.75 12.943 6.79 13.8635 6.866 14.75H1.0885C0.8675 13.87 0.75 12.9485 0.75 12C0.75 11.0515 0.8675 10.13 1.0885 9.25H6.8665ZM8.5495 7.75H15.45C15.228 6.2365 14.892 4.887 14.4755 3.7785C14.086 2.742 13.641 1.9545 13.1855 1.4405C12.729 0.9245 12.326 0.75 12 0.75C11.674 0.75 11.271 0.925 10.814 1.44C10.3585 1.955 9.9135 2.742 9.524 3.7785C9.1075 4.887 8.7715 6.2365 8.549 7.75M17.1335 9.25C17.21 10.1365 17.25 11.057 17.25 12C17.25 12.943 17.21 13.8635 17.134 14.75H22.9115C23.1325 13.87 23.25 12.9485 23.25 12C23.25 11.0515 23.1325 10.13 22.9115 9.25H17.1335ZM22.42 7.75H16.9655C16.7305 6.056 16.3585 4.525 15.88 3.251C15.5745 2.438 15.2185 1.71 14.813 1.1045C18.273 1.9955 21.088 4.491 22.419 7.75M7.034 7.75H1.5805C2.911 4.491 5.7265 1.9955 9.1865 1.105C8.7815 1.71 8.425 2.438 8.1195 3.251C7.641 4.525 7.2695 6.056 7.0345 7.75M7.033 16.25H1.5805C2.9105 19.5075 5.7235 22.002 9.1805 22.894C8.7755 22.289 8.4205 21.561 8.1155 20.749C7.638 19.474 7.267 17.944 7.033 16.25ZM14.48 20.222C14.895 19.1135 15.23 17.764 15.452 16.25H8.548C8.7695 17.764 9.1045 19.1135 9.52 20.222C9.909 21.2585 10.3535 22.0455 10.81 22.5595C11.266 23.0745 11.67 23.25 12 23.25C12.33 23.25 12.734 23.0745 13.19 22.5595C13.6465 22.0455 14.091 21.2585 14.48 20.222ZM15.8845 20.7485C16.362 19.4745 16.733 17.9435 16.967 16.25H22.4195C21.0895 19.5075 18.2765 22.002 14.8195 22.894C15.2245 22.289 15.5795 21.5605 15.8845 20.7485Z" fill="white"/>
</g>
<defs>
<clipPath id="clip0_145_1963">
<rect width="24" height="24" fill="white"/>
</clipPath>
</defs>
</svg>
