<svg width="12" height="13" viewBox="0 0 12 13" fill="none" xmlns="http://www.w3.org/2000/svg">
<path fill-rule="evenodd" clip-rule="evenodd" d="M10.125 6.5C10.125 7.59402 9.6904 8.64323 8.91682 9.41682C8.14323 10.1904 7.09402 10.625 6 10.625C4.90598 10.625 3.85677 10.1904 3.08318 9.41682C2.3096 8.64323 1.875 7.59402 1.875 6.5C1.875 5.40598 2.3096 4.35677 3.08318 3.58318C3.85677 2.8096 4.90598 2.375 6 2.375C7.09402 2.375 8.14323 2.8096 8.91682 3.58318C9.6904 4.35677 10.125 5.40598 10.125 6.5ZM11.25 6.5C11.25 7.89239 10.6969 9.22774 9.71231 10.2123C8.72774 11.1969 7.39239 11.75 6 11.75C4.60761 11.75 3.27226 11.1969 2.28769 10.2123C1.30312 9.22774 0.75 7.89239 0.75 6.5C0.75 5.10761 1.30312 3.77226 2.28769 2.78769C3.27226 1.80312 4.60761 1.25 6 1.25C7.39239 1.25 8.72774 1.80312 9.71231 2.78769C10.6969 3.77226 11.25 5.10761 11.25 6.5ZM8.325 5.3375C8.36932 5.27841 8.40157 5.21116 8.4199 5.1396C8.43823 5.06804 8.44229 4.99358 8.43185 4.92045C8.4214 4.84732 8.39665 4.77697 8.35902 4.71341C8.32138 4.64985 8.27159 4.59432 8.2125 4.55C8.15341 4.50568 8.08616 4.47343 8.0146 4.4551C7.94304 4.43677 7.86858 4.43271 7.79545 4.44315C7.72232 4.4536 7.65197 4.47835 7.58841 4.51598C7.52485 4.55362 7.46932 4.60341 7.425 4.6625L5.56425 7.1435L4.5225 6.1025C4.41587 6.00314 4.27483 5.94905 4.12911 5.95162C3.98338 5.95419 3.84434 6.01322 3.74128 6.11628C3.63822 6.21934 3.57919 6.35838 3.57662 6.50411C3.57405 6.64983 3.62814 6.79087 3.7275 6.8975L5.2275 8.3975C5.28447 8.45446 5.353 8.49851 5.42847 8.52669C5.50394 8.55486 5.58458 8.5665 5.66494 8.56081C5.74529 8.55512 5.82349 8.53224 5.89423 8.49371C5.96498 8.45519 6.02663 8.40191 6.075 8.3375L8.325 5.3375Z" fill="#56B53E"/>
</svg>
