<svg width="14" height="24" viewBox="0 0 14 24" fill="none" xmlns="http://www.w3.org/2000/svg">
<g clip-path="url(#clip0_145_1962)">
<path d="M8.45833 21.6C8.45833 21.1875 8.31554 20.8344 8.02995 20.5406C7.74436 20.2469 7.40104 20.1 7 20.1C6.59896 20.1 6.25564 20.2469 5.97005 20.5406C5.68446 20.8344 5.54167 21.1875 5.54167 21.6C5.54167 22.0125 5.68446 22.3656 5.97005 22.6594C6.25564 22.9531 6.59896 23.1 7 23.1C7.40104 23.1 7.74436 22.9531 8.02995 22.6594C8.31554 22.3656 8.45833 22.0125 8.45833 21.6ZM12.25 18.6V5.4C12.25 5.2375 12.1923 5.09688 12.0768 4.97813C11.9614 4.85938 11.8247 4.8 11.6667 4.8H2.33333C2.17535 4.8 2.03863 4.85938 1.92318 4.97813C1.80773 5.09688 1.75 5.2375 1.75 5.4V18.6C1.75 18.7625 1.80773 18.9031 1.92318 19.0219C2.03863 19.1406 2.17535 19.2 2.33333 19.2H11.6667C11.8247 19.2 11.9614 19.1406 12.0768 19.0219C12.1923 18.9031 12.25 18.7625 12.25 18.6ZM8.75 2.7C8.75 2.5 8.65278 2.4 8.45833 2.4H5.54167C5.34722 2.4 5.25 2.5 5.25 2.7C5.25 2.9 5.34722 3 5.54167 3H8.45833C8.65278 3 8.75 2.9 8.75 2.7ZM14 2.4V21.6C14 22.25 13.7691 22.8125 13.3073 23.2875C12.8455 23.7625 12.2986 24 11.6667 24H2.33333C1.70139 24 1.15451 23.7625 0.692708 23.2875C0.230903 22.8125 0 22.25 0 21.6V2.4C0 1.75 0.230903 1.1875 0.692708 0.7125C1.15451 0.2375 1.70139 0 2.33333 0H11.6667C12.2986 0 12.8455 0.2375 13.3073 0.7125C13.7691 1.1875 14 1.75 14 2.4Z" fill="white"/>
</g>
<defs>
<clipPath id="clip0_145_1962">
<rect width="14" height="24" fill="white"/>
</clipPath>
</defs>
</svg>
