<svg width="16" height="17" viewBox="0 0 16 17" fill="none" xmlns="http://www.w3.org/2000/svg">
<g clip-path="url(#clip0_43_237)">
<path d="M13.6 0.5H2.4C1.07452 0.5 0 1.57452 0 2.9V14.1C0 15.4255 1.07452 16.5 2.4 16.5H13.6C14.9255 16.5 16 15.4255 16 14.1V2.9C16 1.57452 14.9255 0.5 13.6 0.5Z" fill="white"/>
<path d="M12.7625 3.74374C11.7469 2.73124 10.6656 3.38749 9.98748 4.06249L3.58748 10.4625C2.90935 11.1406 2.19998 12.1719 3.26873 13.2375C4.33435 14.3031 5.36248 13.5937 6.0406 12.9156L12.4406 6.51562C13.1187 5.84062 13.775 4.75624 12.7625 3.74374ZM6.64685 3.48124L8.0031 4.83749L9.38123 3.45624C9.47498 3.36249 9.56872 3.27499 9.6656 3.19374C9.52185 2.46562 9.10623 1.80624 7.99998 1.80624C6.89373 1.80624 6.4781 2.46874 6.33748 3.19687C6.4406 3.28749 6.54373 3.37812 6.64685 3.48124ZM9.38123 13.5469L8.0031 12.1687L6.64685 13.5219C6.54373 13.625 6.44373 13.7219 6.3406 13.8094C6.49685 14.5531 6.93435 15.2312 7.99998 15.2312C9.06873 15.2312 9.50935 14.5469 9.66248 13.8031C9.56873 13.7219 9.47498 13.6406 9.38123 13.5469ZM6.07185 6.76562H3.45935C2.49998 6.76562 1.27185 7.06874 1.27185 8.49999C1.27185 9.57187 1.95623 10.0094 2.7031 10.1625C2.7906 10.0625 6.07185 6.76562 6.07185 6.76562ZM13.3062 6.83749C13.225 6.93124 9.93435 10.2375 9.93435 10.2375H12.5093C13.4687 10.2375 14.6968 10.0094 14.6968 8.49999C14.6968 7.39687 14.0375 6.98124 13.3062 6.83749ZM6.9281 5.90937L7.39373 5.44374L6.0406 4.08749C5.36248 3.40937 4.33435 2.69999 3.2656 3.76874C2.48435 4.54999 2.65935 5.31249 3.07185 5.92812C3.19998 5.91874 6.9281 5.90937 6.9281 5.90937ZM9.07498 11.0937L8.60623 11.5625L9.98748 12.9406C10.6656 13.6187 11.7468 14.275 12.7593 13.2625C13.5156 12.5062 13.3437 11.7094 12.925 11.075C12.7906 11.0844 9.07498 11.0937 9.07498 11.0937Z" fill="#FC5656"/>
</g>
<defs>
<clipPath id="clip0_43_237">
<rect width="16" height="16" fill="white" transform="translate(0 0.5)"/>
</clipPath>
</defs>
</svg>
