<svg width="24" height="25" viewBox="0 0 24 25" fill="none" xmlns="http://www.w3.org/2000/svg">
<path d="M12 16.5C13.25 16.5 14.3127 16.0627 15.188 15.188C16.0633 14.3133 16.5007 13.2507 16.5 12C16.4993 10.7493 16.062 9.687 15.188 8.813C14.314 7.939 13.2513 7.50133 12 7.5C10.7487 7.49867 9.68633 7.93633 8.813 8.813C7.93967 9.68967 7.502 10.752 7.5 12C7.498 13.248 7.93567 14.3107 8.813 15.188C9.69033 16.0653 10.7527 16.5027 12 16.5ZM12 14.7C11.25 14.7 10.6127 14.4373 10.088 13.912C9.56333 13.3867 9.30067 12.7493 9.3 12C9.29933 11.2507 9.562 10.6133 10.088 10.088C10.614 9.56267 11.2513 9.3 12 9.3C12.7487 9.3 13.3863 9.56267 13.913 10.088C14.4397 10.6133 14.702 11.2507 14.7 12C14.698 12.7493 14.4357 13.387 13.913 13.913C13.3903 14.439 12.7527 14.7013 12 14.7ZM12 19.5C9.56667 19.5 7.35 18.821 5.35 17.463C3.35 16.105 1.9 14.284 1 12C1.9 9.71667 3.35 7.896 5.35 6.538C7.35 5.18 9.56667 4.50067 12 4.5C14.4333 4.49933 16.65 5.17867 18.65 6.538C20.65 7.89733 22.1 9.718 23 12C22.1 14.2833 20.65 16.1043 18.65 17.463C16.65 18.8217 14.4333 19.5007 12 19.5Z" fill="black"/>
</svg>
