<svg width="24" height="24" viewBox="0 0 24 24" fill="none" xmlns="http://www.w3.org/2000/svg">
<path d="M4.62104 4.515C4.80304 3.787 4.89404 3.424 5.16504 3.212C5.43704 3 5.81204 3 6.56204 3H17.438C18.188 3 18.563 3 18.835 3.212C19.105 3.424 19.197 3.787 19.379 4.515L20.582 9.329C20.679 9.717 20.728 9.91 20.717 10.068C20.7034 10.2673 20.6303 10.4579 20.5073 10.6152C20.3844 10.7726 20.2171 10.8896 20.027 10.951C19.877 11 19.673 11 19.264 11C18.731 11 18.464 11 18.241 10.948C17.9319 10.876 17.6443 10.7314 17.402 10.5262C17.1598 10.321 16.9699 10.0611 16.848 9.768C16.759 9.556 16.716 9.298 16.631 8.785C16.607 8.641 16.595 8.569 16.581 8.55C16.5718 8.53719 16.5596 8.52677 16.5455 8.51958C16.5314 8.51239 16.5158 8.50864 16.5 8.50864C16.4842 8.50864 16.4686 8.51239 16.4546 8.51958C16.4405 8.52677 16.4283 8.53719 16.419 8.55C16.405 8.569 16.393 8.64 16.369 8.785L16.288 9.274L16.27 9.374C16.1846 9.82355 15.9476 10.2302 15.5985 10.5261C15.2495 10.822 14.8095 10.9893 14.352 11H14.148C13.6729 10.9893 13.2171 10.8097 12.8623 10.4934C12.5076 10.1771 12.277 9.74481 12.212 9.274L12.131 8.784C12.107 8.641 12.095 8.569 12.081 8.55C12.0718 8.53719 12.0596 8.52677 12.0455 8.51958C12.0314 8.51239 12.0158 8.50864 12 8.50864C11.9842 8.50864 11.9686 8.51239 11.9546 8.51958C11.9405 8.52677 11.9283 8.53719 11.919 8.55C11.905 8.569 11.893 8.64 11.869 8.785L11.788 9.274L11.77 9.374C11.6846 9.82355 11.4476 10.2302 11.0985 10.5261C10.7495 10.822 10.3095 10.9893 9.85204 11H9.64804C9.19056 10.9893 8.7506 10.822 8.40155 10.5261C8.0525 10.2302 7.81548 9.82355 7.73004 9.374L7.71204 9.274L7.63104 8.784C7.60704 8.641 7.59504 8.569 7.58104 8.55C7.57177 8.53719 7.55959 8.52677 7.54551 8.51958C7.53143 8.51239 7.51585 8.50864 7.50004 8.50864C7.48423 8.50864 7.46864 8.51239 7.45456 8.51958C7.44048 8.52677 7.42831 8.53719 7.41904 8.55C7.40504 8.569 7.39304 8.64 7.36904 8.785C7.28404 9.299 7.24104 9.555 7.15204 9.768C7.03026 10.061 6.84051 10.3208 6.59846 10.526C6.35642 10.7312 6.06903 10.8758 5.76004 10.948C5.53604 11 5.27004 11 4.73604 11C4.32704 11 4.12304 11 3.97304 10.951C3.783 10.8896 3.61571 10.7726 3.49273 10.6152C3.36975 10.4579 3.29672 10.2673 3.28304 10.068C3.27304 9.91 3.32104 9.717 3.41804 9.329L4.62104 4.515Z" fill="white"/>
<path fill-rule="evenodd" clip-rule="evenodd" d="M5.017 12.5C5 12.921 5 13.415 5 14V20C5 20.943 5 21.414 5.293 21.707C5.586 22 6.057 22 7 22H10V18C10 17.7348 10.1054 17.4804 10.2929 17.2929C10.4804 17.1054 10.7348 17 11 17H13C13.2652 17 13.5196 17.1054 13.7071 17.2929C13.8946 17.4804 14 17.7348 14 18V22H17C17.943 22 18.414 22 18.707 21.707C19 21.414 19 20.943 19 20V14C19 13.415 19 12.921 18.983 12.5C18.618 12.5 18.245 12.489 17.9 12.409C17.388 12.2897 16.9095 12.0566 16.5 11.727C15.916 12.197 15.18 12.481 14.387 12.499L14.261 12.5H14.113C13.3427 12.4816 12.5999 12.2096 12 11.726C11.416 12.196 10.68 12.48 9.887 12.498L9.761 12.499H9.613C8.84279 12.4809 8.10006 12.2092 7.5 11.726C7.096 12.051 6.62 12.286 6.1 12.408C5.755 12.488 5.382 12.498 5.017 12.499" fill="white"/>
</svg>
