<svg width="24" height="25" viewBox="0 0 24 25" fill="none" xmlns="http://www.w3.org/2000/svg">
<path d="M16.5 17H18V21.5H6V17H7.5V18.5H16.5V17ZM20.919 13.433C20.9655 13.616 21 13.8035 21 14C21 14.2955 20.9418 14.5881 20.8287 14.861C20.7157 15.134 20.5499 15.3821 20.341 15.591C20.1321 15.7999 19.884 15.9657 19.611 16.0787C19.3381 16.1918 19.0455 16.25 18.75 16.25C18.4545 16.25 18.1619 16.1918 17.889 16.0787C17.616 15.9657 17.3679 15.7999 17.159 15.591C16.9501 15.3821 16.7843 15.134 16.6713 14.861C16.5582 14.5881 16.5 14.2955 16.5 14C16.5 14.5967 16.2629 15.169 15.841 15.591C15.419 16.0129 14.8467 16.25 14.25 16.25C13.6533 16.25 13.081 16.0129 12.659 15.591C12.2371 15.169 12 14.5967 12 14C12 14.5967 11.7629 15.169 11.341 15.591C10.919 16.0129 10.3467 16.25 9.75 16.25C9.15326 16.25 8.58097 16.0129 8.15901 15.591C7.73705 15.169 7.5 14.5967 7.5 14C7.5 14.2955 7.4418 14.5881 7.32873 14.861C7.21566 15.134 7.04992 15.3821 6.84099 15.591C6.63206 15.7999 6.38402 15.9657 6.11104 16.0787C5.83806 16.1918 5.54547 16.25 5.25 16.25C4.95453 16.25 4.66194 16.1918 4.38896 16.0787C4.11598 15.9657 3.86794 15.7999 3.65901 15.591C3.45008 15.3821 3.28434 15.134 3.17127 14.861C3.0582 14.5881 3 14.2955 3 14C3 13.8035 3.033 13.616 3.0795 13.433L4.5 3.5H19.5L20.919 13.433Z" fill="white"/>
</svg>
