<svg width="79" height="81" viewBox="0 0 79 81" fill="none" xmlns="http://www.w3.org/2000/svg">
<g filter="url(#filter0_d_31_228)">
<rect x="2.59644" y="19.8828" width="57.4731" height="57.4731" rx="6" transform="rotate(-20.2398 2.59644 19.8828)" fill="url(#paint0_linear_31_228)"/>
</g>
<g clip-path="url(#clip0_31_228)">
<path d="M29.39 56.8991C28.9469 57.0625 28.5205 57.0492 28.1106 56.8593C27.7007 56.6694 27.4137 56.3536 27.2497 55.912C27.0856 55.4703 27.0989 55.0438 27.2895 54.6325C27.4801 54.2212 27.7959 53.9342 28.2368 53.7716L59.5119 42.24C59.955 42.0766 60.382 42.0897 60.793 42.2792C61.2039 42.4688 61.4903 42.7847 61.6523 43.2271C61.8142 43.6695 61.8011 44.0965 61.613 44.5081C61.4249 44.9197 61.1089 45.2062 60.6651 45.3675L29.39 56.8991ZM30.7878 51.0547C29.9277 51.3718 29.0789 51.3372 28.2413 50.9509C27.4037 50.5646 26.8256 49.9411 26.5071 49.0804L20.1647 31.8791C19.8476 31.019 19.8827 30.17 20.27 29.332C20.6574 28.494 21.2804 27.9162 22.139 27.5984L47.1591 18.373C48.0192 18.0559 48.8687 18.0909 49.7077 18.4778C50.5467 18.8648 51.1241 19.488 51.4398 20.3474L57.7822 37.5487C58.0993 38.4088 58.0649 39.2581 57.679 40.0967C57.2931 40.9354 56.6693 41.5129 55.8079 41.8294L30.7878 51.0547Z" fill="white"/>
</g>
<defs>
<filter id="filter0_d_31_228" x="0.300049" y="1.70361" width="78.4" height="78.4" filterUnits="userSpaceOnUse" color-interpolation-filters="sRGB">
<feFlood flood-opacity="0" result="BackgroundImageFix"/>
<feColorMatrix in="SourceAlpha" type="matrix" values="0 0 0 0 0 0 0 0 0 0 0 0 0 0 0 0 0 0 127 0" result="hardAlpha"/>
<feOffset dy="4"/>
<feGaussianBlur stdDeviation="2"/>
<feComposite in2="hardAlpha" operator="out"/>
<feColorMatrix type="matrix" values="0 0 0 0 0 0 0 0 0 0 0 0 0 0 0 0 0 0 0.25 0"/>
<feBlend mode="normal" in2="BackgroundImageFix" result="effect1_dropShadow_31_228"/>
<feBlend mode="normal" in="SourceGraphic" in2="effect1_dropShadow_31_228" result="shape"/>
</filter>
<linearGradient id="paint0_linear_31_228" x1="31.333" y1="19.8828" x2="31.333" y2="77.356" gradientUnits="userSpaceOnUse">
<stop stop-color="#00E1CD"/>
<stop offset="1" stop-color="#6E39D5"/>
</linearGradient>
<clipPath id="clip0_31_228">
<rect width="40" height="40" fill="white" transform="translate(14.1542 25.2135) rotate(-20.2398)"/>
</clipPath>
</defs>
</svg>
