<svg width="24" height="25" viewBox="0 0 24 25" fill="none" xmlns="http://www.w3.org/2000/svg">
<path fill-rule="evenodd" clip-rule="evenodd" d="M0.75 12.5C0.75 6.2865 5.788 1.25 12.0025 1.25C17.7225 1.25 22.3575 5.665 23.135 10.987C23.497 13.464 21.6125 15.514 19.1535 15.5145C18.7385 15.5145 18.3225 15.5055 17.9265 15.4975L17.8145 15.495C17.4098 15.4845 17.0049 15.4807 16.6 15.4835C15.805 15.4935 15.3145 15.5635 15.0775 15.6815C14.5795 15.9305 14.123 16.719 14.5225 17.6935C14.775 18.3085 14.984 18.7885 15.1555 19.182L15.174 19.225C15.3455 19.619 15.4875 19.946 15.588 20.224C15.691 20.509 15.7655 20.7815 15.7855 21.073C15.8065 21.3695 15.768 21.6415 15.699 21.9225C15.5075 22.7065 14.918 23.171 14.2575 23.423C13.615 23.668 12.823 23.75 12.0025 23.75C5.788 23.75 0.75 18.7135 0.75 12.5ZM14 10C14.663 10 15.2989 9.73661 15.7678 9.26777C16.2366 8.79893 16.5 8.16304 16.5 7.5C16.5 6.83696 16.2366 6.20107 15.7678 5.73223C15.2989 5.26339 14.663 5 14 5C13.337 5 12.7011 5.26339 12.2322 5.73223C11.7634 6.20107 11.5 6.83696 11.5 7.5C11.5 8.16304 11.7634 8.79893 12.2322 9.26777C12.7011 9.73661 13.337 10 14 10ZM9.5 11.25C9.5 11.8467 9.26295 12.419 8.84099 12.841C8.41903 13.2629 7.84674 13.5 7.25 13.5C6.65326 13.5 6.08097 13.2629 5.65901 12.841C5.23705 12.419 5 11.8467 5 11.25C5 10.6533 5.23705 10.081 5.65901 9.65901C6.08097 9.23705 6.65326 9 7.25 9C7.84674 9 8.41903 9.23705 8.84099 9.65901C9.26295 10.081 9.5 10.6533 9.5 11.25ZM9.25 19.5C9.71413 19.5 10.1592 19.3156 10.4874 18.9874C10.8156 18.6592 11 18.2141 11 17.75C11 17.2859 10.8156 16.8408 10.4874 16.5126C10.1592 16.1844 9.71413 16 9.25 16C8.78587 16 8.34075 16.1844 8.01256 16.5126C7.68437 16.8408 7.5 17.2859 7.5 17.75C7.5 18.2141 7.68437 18.6592 8.01256 18.9874C8.34075 19.3156 8.78587 19.5 9.25 19.5Z" fill="white"/>
</svg>
