<svg width="24" height="24" viewBox="0 0 24 24" fill="none" xmlns="http://www.w3.org/2000/svg">
<g clip-path="url(#clip0_145_1969)">
<path d="M22.5 0H1.5C1.10218 0 0.720644 0.158035 0.43934 0.43934C0.158035 0.720644 0 1.10218 0 1.5L0 17.5C0 17.8978 0.158035 18.2794 0.43934 18.5607C0.720644 18.842 1.10218 19 1.5 19H22.5C22.8978 19 23.2794 18.842 23.5607 18.5607C23.842 18.2794 24 17.8978 24 17.5V1.5C24 1.10218 23.842 0.720644 23.5607 0.43934C23.2794 0.158035 22.8978 0 22.5 0ZM22 14.5C22 14.6326 21.9473 14.7598 21.8536 14.8536C21.7598 14.9473 21.6326 15 21.5 15H2.5C2.36739 15 2.24021 14.9473 2.14645 14.8536C2.05268 14.7598 2 14.6326 2 14.5V2.5C2 2.36739 2.05268 2.24021 2.14645 2.14645C2.24021 2.05268 2.36739 2 2.5 2H21.5C21.6326 2 21.7598 2.05268 21.8536 2.14645C21.9473 2.24021 22 2.36739 22 2.5V14.5ZM14.35 20.68C14.3069 20.6279 14.2536 20.5851 14.1935 20.5541C14.1333 20.5232 14.0675 20.5048 14 20.5H10C9.92773 20.5025 9.85674 20.5197 9.79139 20.5507C9.72603 20.5817 9.66771 20.6257 9.62 20.68L7.52 23.21C7.47121 23.2879 7.44533 23.378 7.44533 23.47C7.44533 23.562 7.47121 23.6521 7.52 23.73C7.56263 23.8188 7.63155 23.8924 7.71743 23.9407C7.8033 23.989 7.90195 24.0097 8 24H16C16.0906 23.9971 16.1789 23.9702 16.2556 23.9219C16.3323 23.8736 16.3948 23.8057 16.4366 23.7252C16.4783 23.6447 16.4979 23.5545 16.4932 23.464C16.4886 23.3734 16.4598 23.2858 16.41 23.21L14.35 20.68Z" fill="white"/>
<path d="M17.17 5.14C17.0914 4.81477 16.9056 4.52546 16.6426 4.31867C16.3796 4.11187 16.0546 3.99962 15.72 4H13.5C13.3674 4 13.2402 4.05268 13.1464 4.14645C13.0527 4.24022 13 4.36739 13 4.5C13 4.76522 12.8946 5.01957 12.7071 5.20711C12.5196 5.39464 12.2652 5.5 12 5.5C11.7348 5.5 11.4804 5.39464 11.2929 5.20711C11.1053 5.01957 11 4.76522 11 4.5C11 4.36739 10.9473 4.24022 10.8535 4.14645C10.7598 4.05268 10.6326 4 10.5 4H8.27999C7.9454 3.99962 7.62042 4.11187 7.35739 4.31867C7.09436 4.52546 6.90858 4.81477 6.82999 5.14L5.99999 8.38C5.98338 8.45459 5.98374 8.53195 6.00105 8.60638C6.01836 8.68081 6.05217 8.7504 6.09999 8.81C6.14706 8.87085 6.20781 8.91976 6.2773 8.95277C6.34679 8.98577 6.42308 9.00196 6.49999 9H7.74999C7.81629 9 7.87988 9.02634 7.92676 9.07322C7.97365 9.12011 7.99999 9.1837 7.99999 9.25V12.5C7.99999 12.6326 8.05267 12.7598 8.14643 12.8536C8.2402 12.9473 8.36738 13 8.49999 13H15.5C15.6326 13 15.7598 12.9473 15.8535 12.8536C15.9473 12.7598 16 12.6326 16 12.5V9.25C16 9.1837 16.0263 9.12011 16.0732 9.07322C16.1201 9.02634 16.1837 9 16.25 9H17.5C17.5752 9.0004 17.6495 8.98346 17.7172 8.95051C17.7848 8.91756 17.8439 8.86948 17.89 8.81C17.9378 8.7504 17.9716 8.68081 17.9889 8.60638C18.0062 8.53195 18.0066 8.45459 17.99 8.38L17.17 5.14Z" fill="white"/>
</g>
<defs>
<clipPath id="clip0_145_1969">
<rect width="24" height="24" fill="white"/>
</clipPath>
</defs>
</svg>
