<svg width="24" height="24" viewBox="0 0 24 24" fill="none" xmlns="http://www.w3.org/2000/svg">
<path d="M9.35995 7.62C10.0319 7.62 10.5719 7.08 10.5719 6.408C10.5719 5.736 10.0319 5.196 9.35995 5.196C8.68795 5.196 8.14795 5.736 8.14795 6.408C8.14795 7.08 8.68795 7.62 9.35995 7.62Z" fill="white"/>
<path fill-rule="evenodd" clip-rule="evenodd" d="M11.796 10.26C11.796 8.964 10.704 8.028 9.36002 8.028C8.01602 8.028 6.92402 8.964 6.92402 10.26V10.872C6.92402 10.98 6.97202 11.088 7.04402 11.16C7.11602 11.232 7.22402 11.28 7.33202 11.28H11.388C11.496 11.28 11.604 11.232 11.676 11.16C11.748 11.088 11.796 10.98 11.796 10.872V10.26ZM6.90002 13.8C6.90002 13.5613 6.99485 13.3324 7.16363 13.1636C7.33241 12.9948 7.56133 12.9 7.80002 12.9H16.2C16.4387 12.9 16.6676 12.9948 16.8364 13.1636C17.0052 13.3324 17.1 13.5613 17.1 13.8C17.1 14.0387 17.0052 14.2676 16.8364 14.4364C16.6676 14.6052 16.4387 14.7 16.2 14.7H7.80002C7.56133 14.7 7.33241 14.6052 7.16363 14.4364C6.99485 14.2676 6.90002 14.0387 6.90002 13.8ZM6.90002 17.4C6.90002 17.1613 6.99485 16.9324 7.16363 16.7636C7.33241 16.5948 7.56133 16.5 7.80002 16.5H16.2C16.4387 16.5 16.6676 16.5948 16.8364 16.7636C17.0052 16.9324 17.1 17.1613 17.1 17.4C17.1 17.6387 17.0052 17.8676 16.8364 18.0364C16.6676 18.2052 16.4387 18.3 16.2 18.3H7.80002C7.56133 18.3 7.33241 18.2052 7.16363 18.0364C6.99485 17.8676 6.90002 17.6387 6.90002 17.4Z" fill="white"/>
<path fill-rule="evenodd" clip-rule="evenodd" d="M3 3.00001C3 1.67761 4.0776 0.600006 5.4 0.600006H13.428C14.1024 0.600006 14.7384 0.885606 15.186 1.35721L15.1932 1.36561L20.3676 7.00801C20.7984 7.46761 21 8.06881 21 8.64001V21C21 22.3224 19.9224 23.4 18.6 23.4H5.4C4.0776 23.4 3 22.3224 3 21V3.00001ZM13.4268 3.00001H5.4V21H18.6V8.63041L13.4448 3.00841L13.4412 3.00721L13.4268 3.00001Z" fill="white"/>
<path fill-rule="evenodd" clip-rule="evenodd" d="M13.428 0.600006C13.7463 0.600006 14.0515 0.726434 14.2766 0.951478C14.5016 1.17652 14.628 1.48175 14.628 1.80001V7.44001H19.8C19.9576 7.44001 20.1137 7.47105 20.2592 7.53135C20.4048 7.59166 20.5371 7.68005 20.6486 7.79148C20.76 7.90291 20.8484 8.0352 20.9087 8.18079C20.969 8.32638 21 8.48242 21 8.64001C21 8.79759 20.969 8.95364 20.9087 9.09923C20.8484 9.24482 20.76 9.3771 20.6486 9.48853C20.5371 9.59997 20.4048 9.68836 20.2592 9.74866C20.1137 9.80897 19.9576 9.84001 19.8 9.84001H13.428C13.1098 9.84001 12.8045 9.71358 12.5795 9.48853C12.3545 9.26349 12.228 8.95827 12.228 8.64001V1.80001C12.228 1.48175 12.3545 1.17652 12.5795 0.951478C12.8045 0.726434 13.1098 0.600006 13.428 0.600006Z" fill="white"/>
</svg>
