<svg width="50" height="40" viewBox="0 0 50 40" fill="none" xmlns="http://www.w3.org/2000/svg">
<mask id="mask0_19_24" style="mask-type:alpha" maskUnits="userSpaceOnUse" x="0" y="0" width="25" height="40">
<path d="M0 8.17563C0 5.34982 0 3.93691 0.539659 2.85313C1.03871 1.8509 1.8509 1.03871 2.85313 0.539659C3.93691 0 5.34982 0 8.17563 0V37.6483C8.17563 38.695 8.17563 39.2184 7.85044 39.5436C7.52525 39.8688 7.00186 39.8688 5.95509 39.8688H1.81681C0.960355 39.8688 0.53213 39.8688 0.266065 39.6027C0 39.3367 0 38.9085 0 38.052V8.17563Z" fill="#D9D9D9"/>
<path d="M0 5.04668C0 2.25948 2.25948 0 5.04668 0H24.8297V5.14762C24.8297 6.59697 23.6548 7.77189 22.2054 7.77189H0V5.04668Z" fill="#D9D9D9"/>
<path d="M11.0018 6.66162C10.4716 6.66162 9.94658 6.75691 9.45675 6.94206C8.96691 7.1272 8.52184 7.39857 8.14694 7.74067C7.77203 8.08276 7.47464 8.48889 7.27175 8.93587C7.06885 9.38284 6.96442 9.8619 6.96442 10.3457H8.1717C8.1717 10.0066 8.2449 9.67076 8.38713 9.35744C8.52935 9.04413 8.73781 8.75944 9.00061 8.51964C9.2634 8.27984 9.57539 8.08962 9.91875 7.95984C10.2621 7.83006 10.6301 7.76326 11.0018 7.76326V6.66162Z" fill="#D9D9D9"/>
<path d="M7.57003 13.9288C7.57003 14.1542 7.61963 14.3773 7.71601 14.5855C7.81238 14.7937 7.95364 14.9828 8.13172 15.1422C8.3098 15.3015 8.52121 15.4279 8.75388 15.5141C8.98655 15.6003 9.23593 15.6447 9.48777 15.6447V15.1316C9.31123 15.1316 9.13643 15.1005 8.97333 15.0401C8.81023 14.9796 8.66204 14.891 8.53721 14.7793C8.41238 14.6677 8.31337 14.5351 8.24581 14.3891C8.17825 14.2432 8.14348 14.0868 8.14348 13.9288H7.57003Z" fill="#D9D9D9"/>
<path d="M9.48777 21.3979C9.23593 21.3979 8.98655 21.4423 8.75388 21.5286C8.52121 21.6148 8.3098 21.7412 8.13172 21.9005C7.95364 22.0598 7.81238 22.249 7.71601 22.4572C7.61963 22.6654 7.57003 22.8885 7.57003 23.1138H8.14348C8.14348 22.9559 8.17825 22.7995 8.24581 22.6535C8.31337 22.5076 8.41238 22.375 8.53721 22.2633C8.66204 22.1516 8.81023 22.063 8.97333 22.0026C9.13643 21.9421 9.31123 21.911 9.48777 21.911V21.3979Z" fill="#D9D9D9"/>
<path d="M0 15.0391H20.3742C20.8759 15.0391 21.2826 15.4458 21.2826 15.9475V20.2877C21.2826 21.1796 20.5596 21.9026 19.6677 21.9026H0V15.0391Z" fill="#D9D9D9"/>
</mask>
<g mask="url(#mask0_19_24)">
<rect x="-0.100952" y="-6.00305" width="24.9306" height="45.7557" fill="url(#paint0_linear_19_24)"/>
</g>
<mask id="mask1_19_24" style="mask-type:alpha" maskUnits="userSpaceOnUse" x="27" y="0" width="23" height="40">
<path d="M27.1179 2.01604C27.1179 1.06567 27.1179 0.590486 27.4132 0.295243C27.7084 0 28.1836 0 29.134 0H31.15C33.0508 0 34.0011 0 34.5916 0.590486C35.1821 1.18097 35.1821 2.13134 35.1821 4.03209V39.9177C32.1673 39.9177 30.66 39.9177 29.5372 39.2694C28.8016 38.8448 28.1908 38.234 27.7662 37.4984C27.1179 36.3756 27.1179 34.8683 27.1179 31.8535V2.01604Z" fill="#D9D9D9"/>
<path d="M27.1179 32.1559H47.3792C48.6146 32.1559 49.2324 32.1559 49.6162 32.5397C50 32.9235 50 33.5413 50 34.7768V37.0952C50 38.4257 50 39.091 49.5867 39.5043C49.1733 39.9177 48.5081 39.9177 47.1776 39.9177H34.8797C32.1508 39.9177 30.7864 39.9177 29.7457 39.3831C28.8464 38.9212 28.1144 38.1892 27.6525 37.2899C27.1179 36.2492 27.1179 34.8847 27.1179 32.1559Z" fill="#D9D9D9"/>
<path d="M32.5431 29.7568C32.5431 30.4187 32.6735 31.0741 32.9268 31.6856C33.18 32.2971 33.5513 32.8527 34.0193 33.3207C34.4873 33.7887 35.0429 34.16 35.6544 34.4133C36.2659 34.6666 36.9213 34.7969 37.5832 34.7969V32.1579C37.2679 32.1579 36.9557 32.0958 36.6644 31.9751C36.373 31.8544 36.1084 31.6776 35.8854 31.4546C35.6624 31.2317 35.4856 30.967 35.3649 30.6757C35.2442 30.3843 35.1821 30.0721 35.1821 29.7568H32.5431Z" fill="#D9D9D9"/>
</mask>
<g mask="url(#mask1_19_24)">
<rect x="27.1179" y="0.204956" width="22.8821" height="40.3634" fill="url(#paint1_linear_19_24)"/>
</g>
<defs>
<linearGradient id="paint0_linear_19_24" x1="12.3644" y1="-6.00305" x2="12.3644" y2="39.7526" gradientUnits="userSpaceOnUse">
<stop stop-color="#FA9A10"/>
<stop offset="1" stop-color="#EB3738"/>
</linearGradient>
<linearGradient id="paint1_linear_19_24" x1="48.6392" y1="48.0468" x2="19.5431" y2="11.8806" gradientUnits="userSpaceOnUse">
<stop stop-color="#8741FF"/>
<stop offset="0.163462" stop-color="#7A45F8"/>
<stop offset="0.411493" stop-color="#2E60CC"/>
<stop offset="1" stop-color="#00F2E0"/>
</linearGradient>
</defs>
</svg>
